<svg width="21" height="21" viewBox="0 0 21 21" fill="none" xmlns="http://www.w3.org/2000/svg">
<path d="M15.4628 7.79456H5.4628C5.19759 7.79456 4.94323 7.89991 4.7557 8.08745C4.56816 8.27499 4.4628 8.52934 4.4628 8.79456C4.4628 9.05977 4.56816 9.31413 4.7557 9.50166C4.94323 9.6892 5.19759 9.79456 5.4628 9.79456H15.4628C15.728 9.79456 15.9824 9.6892 16.1699 9.50166C16.3574 9.31413 16.4628 9.05977 16.4628 8.79456C16.4628 8.52934 16.3574 8.27499 16.1699 8.08745C15.9824 7.89991 15.728 7.79456 15.4628 7.79456ZM11.4628 11.7946H5.4628C5.19759 11.7946 4.94323 11.8999 4.7557 12.0874C4.56816 12.275 4.4628 12.5293 4.4628 12.7946C4.4628 13.0598 4.56816 13.3141 4.7557 13.5017C4.94323 13.6892 5.19759 13.7946 5.4628 13.7946H11.4628C11.728 13.7946 11.9824 13.6892 12.1699 13.5017C12.3574 13.3141 12.4628 13.0598 12.4628 12.7946C12.4628 12.5293 12.3574 12.275 12.1699 12.0874C11.9824 11.8999 11.728 11.7946 11.4628 11.7946ZM10.4628 0.794556C9.14958 0.794556 7.84922 1.05321 6.63597 1.55576C5.42271 2.05831 4.32032 2.7949 3.39173 3.72349C1.51637 5.59885 0.462802 8.14239 0.462802 10.7946C0.45406 13.1037 1.25359 15.3431 2.7228 17.1246L0.722802 19.1246C0.584045 19.2652 0.490049 19.4438 0.452674 19.6377C0.4153 19.8317 0.436223 20.0324 0.512802 20.2146C0.59586 20.3945 0.730507 20.5457 0.899649 20.6489C1.06879 20.7522 1.2648 20.8029 1.4628 20.7946H10.4628C13.115 20.7946 15.6585 19.741 17.5339 17.8656C19.4092 15.9903 20.4628 13.4467 20.4628 10.7946C20.4628 8.14239 19.4092 5.59885 17.5339 3.72349C15.6585 1.84812 13.115 0.794556 10.4628 0.794556ZM10.4628 18.7946H3.8728L4.8028 17.8646C4.98905 17.6772 5.0936 17.4237 5.0936 17.1596C5.0936 16.8954 4.98905 16.6419 4.8028 16.4546C3.49339 15.1466 2.67798 13.4251 2.49549 11.5833C2.31301 9.7416 2.77474 7.89356 3.80203 6.35408C4.82931 4.81459 6.35859 3.67891 8.12932 3.14053C9.90004 2.60214 11.8027 2.69436 13.513 3.40147C15.2234 4.10858 16.6357 5.38683 17.5092 7.01845C18.3828 8.65006 18.6637 10.5341 18.3039 12.3496C17.9442 14.165 16.9661 15.7996 15.5363 16.9748C14.1066 18.15 12.3136 18.7931 10.4628 18.7946Z" fill="black"/>
</svg>
