<svg width="19" height="21" viewBox="0 0 19 21" fill="none" xmlns="http://www.w3.org/2000/svg">
<path d="M17.4628 6.79456L11.4628 1.53456C10.9128 1.04261 10.2007 0.77063 9.4628 0.77063C8.72487 0.77063 8.01282 1.04261 7.4628 1.53456L1.4628 6.79456C1.14517 7.07864 0.891702 7.42712 0.719274 7.81681C0.546846 8.20649 0.459415 8.62844 0.462802 9.05456V17.7946C0.462802 18.5902 0.778873 19.3533 1.34148 19.9159C1.90409 20.4785 2.66715 20.7946 3.4628 20.7946H15.4628C16.2585 20.7946 17.0215 20.4785 17.5841 19.9159C18.1467 19.3533 18.4628 18.5902 18.4628 17.7946V9.04456C18.4648 8.62012 18.3767 8.2001 18.2043 7.81224C18.0319 7.42438 17.7792 7.07752 17.4628 6.79456ZM11.4628 18.7946H7.4628V13.7946C7.4628 13.5293 7.56816 13.275 7.7557 13.0875C7.94323 12.8999 8.19759 12.7946 8.4628 12.7946H10.4628C10.728 12.7946 10.9824 12.8999 11.1699 13.0875C11.3574 13.275 11.4628 13.5293 11.4628 13.7946V18.7946ZM16.4628 17.7946C16.4628 18.0598 16.3574 18.3141 16.1699 18.5017C15.9824 18.6892 15.728 18.7946 15.4628 18.7946H13.4628V13.7946C13.4628 12.9989 13.1467 12.2358 12.5841 11.6732C12.0215 11.1106 11.2585 10.7946 10.4628 10.7946H8.4628C7.66715 10.7946 6.90409 11.1106 6.34148 11.6732C5.77887 12.2358 5.4628 12.9989 5.4628 13.7946V18.7946H3.4628C3.19759 18.7946 2.94323 18.6892 2.7557 18.5017C2.56816 18.3141 2.4628 18.0598 2.4628 17.7946V9.04456C2.46298 8.90258 2.4934 8.76226 2.55202 8.63294C2.61064 8.50362 2.69613 8.38827 2.8028 8.29456L8.8028 3.04456C8.98529 2.88424 9.21989 2.79583 9.4628 2.79583C9.70571 2.79583 9.94031 2.88424 10.1228 3.04456L16.1228 8.29456C16.2295 8.38827 16.315 8.50362 16.3736 8.63294C16.4322 8.76226 16.4626 8.90258 16.4628 9.04456V17.7946Z" fill="#116696"/>
</svg>
