<svg width="21" height="21" viewBox="0 0 21 21" fill="none" xmlns="http://www.w3.org/2000/svg">
<path d="M14.1728 11.5046C15.1532 10.7332 15.8688 9.67548 16.22 8.4785C16.5713 7.28152 16.5407 6.00482 16.1326 4.82603C15.7245 3.64723 14.9591 2.62495 13.9429 1.90141C12.9267 1.17788 11.7102 0.789063 10.4628 0.789062C9.21534 0.789062 7.99891 1.17788 6.98273 1.90141C5.96654 2.62495 5.20114 3.64723 4.79301 4.82603C4.38488 6.00482 4.35431 7.28152 4.70556 8.4785C5.05681 9.67548 5.7724 10.7332 6.7528 11.5046C5.07287 12.1776 3.60708 13.2939 2.51169 14.7345C1.41629 16.175 0.732359 17.8859 0.532796 19.6846C0.51835 19.8159 0.529912 19.9488 0.566821 20.0756C0.60373 20.2025 0.665263 20.3208 0.747907 20.4239C0.914815 20.632 1.15758 20.7654 1.4228 20.7946C1.68801 20.8237 1.95396 20.7464 2.16212 20.5794C2.37029 20.4125 2.50362 20.1698 2.5328 19.9046C2.75238 17.9498 3.68448 16.1444 5.15101 14.8334C6.61755 13.5223 8.5157 12.7976 10.4828 12.7976C12.4499 12.7976 14.348 13.5223 15.8146 14.8334C17.2811 16.1444 18.2132 17.9498 18.4328 19.9046C18.46 20.1503 18.5772 20.3772 18.7619 20.5416C18.9466 20.7059 19.1856 20.7961 19.4328 20.7946H19.5428C19.8049 20.7644 20.0445 20.6319 20.2094 20.4258C20.3742 20.2198 20.4509 19.9569 20.4228 19.6946C20.2223 17.8908 19.5347 16.1755 18.4336 14.7328C17.3326 13.29 15.8597 12.174 14.1728 11.5046ZM10.4628 10.7946C9.67167 10.7946 8.89831 10.56 8.24052 10.1204C7.58272 9.68091 7.07003 9.0562 6.76728 8.32529C6.46453 7.59439 6.38531 6.79012 6.53965 6.0142C6.69399 5.23827 7.07496 4.52554 7.63437 3.96613C8.19378 3.40672 8.90651 3.02576 9.68244 2.87142C10.4584 2.71708 11.2626 2.79629 11.9935 3.09904C12.7244 3.40179 13.3491 3.91448 13.7887 4.57228C14.2282 5.23007 14.4628 6.00343 14.4628 6.79456C14.4628 7.85542 14.0414 8.87284 13.2912 9.62299C12.5411 10.3731 11.5237 10.7946 10.4628 10.7946Z" fill="black"/>
</svg>
