<svg width="21" height="19" viewBox="0 0 21 19" fill="none" xmlns="http://www.w3.org/2000/svg">
<path d="M18.6228 2.79457C17.5628 1.73178 16.1576 1.08311 14.6611 0.965738C13.1647 0.848368 11.6756 1.27003 10.4628 2.15457C9.19046 1.20821 7.60679 0.77908 6.03072 0.953606C4.45465 1.12813 3.00324 1.89335 1.96877 3.09515C0.934307 4.29696 0.393622 5.84609 0.455601 7.43058C0.51758 9.01508 1.17762 10.5172 2.3028 11.6346L8.5128 17.8546C9.03282 18.3663 9.73319 18.6532 10.4628 18.6532C11.1924 18.6532 11.8928 18.3663 12.4128 17.8546L18.6228 11.6346C19.7904 10.4598 20.4457 8.87084 20.4457 7.21457C20.4457 5.5583 19.7904 3.9693 18.6228 2.79457ZM17.2128 10.2546L11.0028 16.4646C10.9321 16.5359 10.848 16.5926 10.7553 16.6312C10.6627 16.6699 10.5632 16.6898 10.4628 16.6898C10.3624 16.6898 10.2629 16.6699 10.1703 16.6312C10.0776 16.5926 9.99347 16.5359 9.9228 16.4646L3.7128 10.2246C2.92856 9.42291 2.48941 8.34603 2.48941 7.22457C2.48941 6.1031 2.92856 5.02622 3.7128 4.22457C4.51196 3.43556 5.58977 2.99314 6.7128 2.99314C7.83583 2.99314 8.91364 3.43556 9.7128 4.22457C9.80576 4.3183 9.91636 4.39269 10.0382 4.44346C10.1601 4.49423 10.2908 4.52037 10.4228 4.52037C10.5548 4.52037 10.6855 4.49423 10.8074 4.44346C10.9292 4.39269 11.0398 4.3183 11.1328 4.22457C11.932 3.43556 13.0098 2.99314 14.1328 2.99314C15.2558 2.99314 16.3336 3.43556 17.1328 4.22457C17.9278 5.01572 18.3814 6.08676 18.3963 7.20825C18.4113 8.32975 17.9864 9.4125 17.2128 10.2246V10.2546Z" fill="black"/>
</svg>
